<svg width="748" height="561" viewBox="0 0 748 561" fill="none" xmlns="http://www.w3.org/2000/svg">
<path d="M297.816 191.469H129.226C121.654 191.469 115.515 197.608 115.515 205.181V373.771C115.515 381.344 121.654 387.483 129.226 387.483H297.816C305.389 387.483 311.528 381.344 311.528 373.771V205.181C311.528 197.608 305.389 191.469 297.816 191.469Z" fill="#EBFAF2"/>
<path d="M274.913 185.607C277.526 185.607 279.645 183.489 279.645 180.876C279.645 178.263 277.526 176.145 274.913 176.145C272.301 176.145 270.182 178.263 270.182 180.876C270.182 183.489 272.301 185.607 274.913 185.607Z" fill="#A15842"/>
<path d="M274.913 164.429V179.3" stroke="#A15842" stroke-width="4" stroke-miterlimit="10"/>
<path d="M295.301 169.389H288.102V231.571H295.301V169.389Z" fill="#A15842"/>
<path d="M313.131 118.119C311.692 120.966 305.651 130.905 291.701 130.905C277.751 130.905 271.716 120.966 270.271 118.119L256.784 169.389H326.624L313.131 118.119Z" fill="#34CB79"/>
<path d="M307.311 119.114L316.381 169.399" stroke="#F5EBDD" stroke-width="4" stroke-miterlimit="10" stroke-linecap="round"/>
<path d="M276.096 119.769L267.144 169.399" stroke="#F5EBDD" stroke-width="4" stroke-miterlimit="10" stroke-linecap="round"/>
<path d="M285.82 119.446L282.351 169.38" stroke="#F5EBDD" stroke-width="4" stroke-miterlimit="10" stroke-linecap="round"/>
<path d="M297.582 119.446L301.061 169.478" stroke="#F5EBDD" stroke-width="4" stroke-miterlimit="10" stroke-linecap="round"/>
<path d="M291.72 130.9C305.675 130.9 311.71 120.961 313.15 118.114V118.016H270.299L270.271 118.114C271.716 120.966 277.751 130.9 291.72 130.9Z" fill="#FF7235"/>
<path d="M565.923 95.4869H397.333C389.76 95.4869 383.621 101.626 383.621 109.199V277.789C383.621 285.361 389.76 291.5 397.333 291.5H565.923C573.496 291.5 579.635 285.361 579.635 277.789V109.199C579.635 101.626 573.496 95.4869 565.923 95.4869Z" fill="#EBFAF2"/>
<path d="M291.472 475.345C290.172 475.345 288.916 474.87 287.941 474.009C286.966 473.148 286.34 471.96 286.18 470.67L282.234 437.519H300.71L296.764 470.67C296.606 471.961 295.98 473.149 295.005 474.011C294.03 474.872 292.773 475.346 291.472 475.345Z" fill="#30242A"/>
<path d="M498.748 475.345C497.447 475.346 496.191 474.872 495.217 474.01C494.243 473.149 493.618 471.96 493.46 470.67L489.515 437.519H507.985L504.04 470.67C503.881 471.961 503.255 473.149 502.28 474.011C501.305 474.872 500.049 475.346 498.748 475.345Z" fill="#30242A"/>
<path d="M183.068 300.514H266.008V437.959H145.252V338.325C145.254 328.296 149.238 318.679 156.33 311.588C163.422 304.497 173.04 300.514 183.068 300.514Z" fill="#FFB7D5"/>
<path d="M275.89 231.571H561.645C571.675 231.571 581.293 235.556 588.385 242.648C595.477 249.739 599.461 259.358 599.461 269.388V437.945H238.084V269.383C238.084 259.353 242.068 249.735 249.16 242.643C256.252 235.551 265.87 231.567 275.9 231.567L275.89 231.571Z" fill="#94D1B0"/>
<path d="M238.074 320.766V437.945" stroke="#A15842" stroke-width="4" stroke-miterlimit="10" stroke-linecap="round"/>
<path d="M275.89 355.487H561.645C571.675 355.487 581.293 359.471 588.385 366.563C595.477 373.655 599.461 383.274 599.461 393.303V437.949H238.084V393.303C238.084 383.275 242.067 373.658 249.157 366.566C256.246 359.475 265.863 355.49 275.89 355.487Z" fill="#94D1B0"/>
<path d="M450.595 355.487H274.525C264.854 355.487 255.579 359.329 248.741 366.167C241.902 373.006 238.06 382.281 238.06 391.952V437.963" stroke="#A15842" stroke-width="4" stroke-miterlimit="10" stroke-linecap="round"/>
<path d="M477.799 356.062V437.945" stroke="#A15842" stroke-width="4" stroke-miterlimit="10"/>
<path d="M599.461 299.611H515.148" stroke="#A15842" stroke-width="4" stroke-miterlimit="10"/>
<path d="M212.843 285.175C223.657 286.526 227.027 281.935 228.612 277.966C230.412 273.464 229.253 269.593 227.85 264.563C227.85 264.563 231.422 262.618 230.865 260.388C230.398 258.588 226.335 258.387 226.335 258.387C226.176 257.583 226.035 256.749 225.91 255.886C225.008 249.575 223.657 245.97 223.657 245.97C220.501 246.873 216.448 246.438 215.097 245.97C213.272 251.027 209.977 255.423 205.635 258.593C205.635 258.593 195.719 247.78 189.412 255.891C184.27 262.506 191.666 270.757 196.621 271.66C193.676 277.873 185.752 281.477 181.628 282.982C181.881 284.937 182.119 286.75 182.33 288.331H213.185L212.843 285.175Z" fill="#EAA58B"/>
<path d="M320.158 324.408C321.786 318.617 323.116 312.747 324.141 306.82L313.328 277.531C313.328 277.531 317.835 265.376 313.795 263.562C309.756 261.749 300.71 273.487 297.106 282.94C295.549 287.026 291.295 296.418 286.97 305.764L320.158 324.408Z" fill="#EAA58B"/>
<path d="M275.474 330.251C275.474 330.251 249.341 308.171 238.028 300.056C226.714 291.94 213.746 293.305 213.746 293.305L213.18 288.345H182.325C182.792 291.865 183.096 294.202 183.096 294.202L160.123 376.216L228.607 370.807L226.808 345.562C226.808 345.562 263.74 376.417 284.937 373.5C304.053 370.854 314.913 343.253 320.153 324.412L286.961 305.768C281.29 318.045 275.474 330.251 275.474 330.251Z" fill="#FF7235"/>
<path d="M196.621 271.674C191.666 270.771 184.265 262.52 189.412 255.905C195.719 247.794 205.634 258.607 205.634 258.607C209.976 255.437 213.272 251.041 215.097 245.984C216.448 246.452 220.501 246.887 223.657 245.984C223.657 245.984 230.417 243.731 229.963 238.327C229.36 231.071 218.248 234.269 218.248 234.269C218.248 234.269 206.093 225.256 193.003 231.113C179.052 237.392 177.697 250.047 178.585 258.607C179.099 263.52 180.506 274.502 181.614 282.996C185.752 281.486 193.676 277.887 196.621 271.674Z" fill="#30242A"/>
<path d="M321.948 312.454C319.887 313.304 318.078 313.552 317.273 313.089C315.254 311.939 314.936 309.532 317.334 306.147C317.334 306.147 311.635 308.368 309.878 305.479C308.12 302.589 310.761 299.929 310.761 299.929C310.761 299.929 306.727 301.042 305.74 297.452C304.754 293.861 308.078 291.982 308.078 291.982C308.078 291.982 305.806 291.136 305.74 288.765C305.651 285.32 311.266 282.524 312.884 281.79" stroke="#A15842" stroke-width="8" stroke-miterlimit="10" stroke-linecap="round"/>
<path d="M227.803 345.464L226.134 325.974" stroke="#A15842" stroke-width="4" stroke-miterlimit="10" stroke-linecap="round"/>
<path d="M212.418 286.007C209.803 285.416 207.285 284.459 204.938 283.165" stroke="#A15842" stroke-width="4" stroke-miterlimit="10" stroke-linecap="round"/>
<path d="M163.05 370.129L174.663 339.251" stroke="#A15842" stroke-width="4" stroke-miterlimit="10" stroke-linecap="round"/>
<path d="M224.176 269.182C223.432 269.649 220.637 270.005 219.501 267.859" stroke="#A15842" stroke-width="4" stroke-miterlimit="10" stroke-linecap="round"/>
<path d="M220.052 259.056C220.798 259.056 221.403 258.451 221.403 257.705C221.403 256.959 220.798 256.354 220.052 256.354C219.306 256.354 218.701 256.959 218.701 257.705C218.701 258.451 219.306 259.056 220.052 259.056Z" fill="#A15842"/>
<path d="M195.27 261.763L200.226 264.465" stroke="#A15842" stroke-width="4" stroke-miterlimit="10" stroke-linecap="round"/>
<path d="M321.687 457L356.202 446.785C353.57 437.688 348.535 420.441 345.296 410.395L302.225 428.375C307.861 438.468 314.373 448.047 321.687 457Z" fill="#EAA58B"/>
<path d="M322.341 457.771C321.331 461.606 320.705 465.532 320.471 469.492H381.531C380.36 466.673 378.28 464.326 375.622 462.825L357.937 452.811C357.937 452.811 357.263 450.474 356.202 446.78L321.687 457C322.107 457.505 322.341 457.771 322.341 457.771Z" fill="#FFBE21"/>
<path d="M320.537 475.345H382.714L382.523 473.419C382.388 472.067 382.053 470.744 381.527 469.492H320.467C320.332 471.441 320.356 473.399 320.537 475.345Z" fill="#FF7235"/>
<path d="M289.897 399.647C292.879 409.932 297.447 419.801 302.225 428.375L345.295 410.395C344.828 408.885 344.361 407.538 343.968 406.402C330.49 367.455 322.341 336.132 302.515 332.958C271.309 327.993 218.224 381.737 210.253 389.993L221.735 396.954L257.836 413.91L270.986 416.945L289.897 399.647Z" fill="#A15842"/>
<path d="M288.915 399.245C287.893 394.261 287.391 389.185 287.419 384.098" stroke="#30242A" stroke-width="4" stroke-miterlimit="10" stroke-linecap="round"/>
<path d="M456.168 292.851C456.168 292.851 412.985 304.244 393.99 314.931C372.359 327.086 371.008 343.318 357.493 384.322C353.14 397.52 350.064 408.123 347.208 416.454L384.439 434.032L384.509 433.891C384.509 433.891 402.742 431.213 404.336 408.646C405.538 391.816 406.113 379.329 411.994 366.74L512.478 292.842L456.168 292.851Z" fill="#30242A"/>
<path d="M327.133 441.208C314.113 443.181 308.681 445.715 306.563 451.619L331.158 463.068C331.158 463.068 344.346 459.328 351.448 461.156V461.179C356.205 462.295 360.848 463.849 365.318 465.822C372.646 455.82 379.061 445.181 384.486 434.032L347.254 416.454C341.915 432.045 337.465 439.642 327.133 441.208Z" fill="#4856DF"/>
<path d="M345.525 469.763L357.521 475.345C360.291 472.322 362.886 469.143 365.291 465.822C360.82 463.849 356.177 462.295 351.42 461.179L345.525 469.763Z" fill="#30242A"/>
<path d="M339.368 431.493L347.717 435.144" stroke="#F5EBDD" stroke-width="4" stroke-miterlimit="10" stroke-linecap="round"/>
<path d="M334.623 437.285L342.972 440.941" stroke="#F5EBDD" stroke-width="4" stroke-miterlimit="10" stroke-linecap="round"/>
<path d="M499.874 192.591C502.487 192.591 504.606 190.473 504.606 187.86C504.606 185.247 502.487 183.129 499.874 183.129C497.261 183.129 495.143 185.247 495.143 187.86C495.143 190.473 497.261 192.591 499.874 192.591Z" fill="#FFBE21"/>
<path d="M516.55 158.123C527.002 158.123 535.475 149.65 535.475 139.198C535.475 128.746 527.002 120.274 516.55 120.274C506.099 120.274 497.626 128.746 497.626 139.198C497.626 149.65 506.099 158.123 516.55 158.123Z" fill="#30242A"/>
<path d="M503.498 151.816C504.657 152.349 494.938 129.282 489.982 132.887C485.298 136.281 497.621 149.133 503.498 151.816Z" fill="#3EC1F3"/>
<path d="M504.016 153.223C505.078 154.49 529.864 145.818 526.456 140.811C523.132 136 502.96 151.937 504.016 153.223Z" fill="#3EC1F3"/>
<path d="M550.346 243.736L552.515 243.399V242.763C551.813 243.133 551.089 243.458 550.346 243.736Z" fill="#30242A"/>
<path d="M491.314 238.78C512.408 239.164 523.053 217.687 525.755 211.277C524.82 211.104 523.885 210.955 522.857 210.842C510.702 209.491 508.439 209.043 504.381 203.634C500.323 198.225 499.874 187.411 499.874 187.411C499.874 187.411 510.384 185.074 508.888 176.598C507.537 168.936 498.523 168.936 493.568 174.345C493.568 174.345 485.905 172.54 478.697 164.429C478.697 164.429 473.423 165.668 469.814 165.065C468.879 170.965 468.935 177.566 467.869 182.905C466.065 191.918 467.402 197.776 472.825 200.931C478.248 204.087 484.54 201.829 484.54 201.829L483.189 209.94C483.189 209.94 475.321 210.852 468.762 212.914C470.067 223.096 474.756 238.481 491.314 238.78Z" fill="#A15842"/>
<path d="M520.603 292.851L523.058 291.187L518.803 292.851H520.603Z" fill="#A15842"/>
<path d="M423.274 240.585C423.274 240.585 399.652 208.327 393.986 201.829C387.674 194.62 379.114 186.963 376.412 189.674C373.71 192.386 381.368 201.39 381.368 201.39L380.017 230.679C380.017 230.679 395.538 272.534 412.461 277.994C420.923 280.724 436.996 273.525 448.351 267.429L430.787 235.639C426.323 238.565 423.274 240.585 423.274 240.585Z" fill="#A15842"/>
<path d="M550.346 243.736C550.346 243.736 548.541 233.825 546.288 228.416C542.917 220.319 537.354 213.456 525.755 211.277C523.053 217.687 512.408 239.164 491.314 238.78C474.756 238.481 470.067 223.096 468.776 212.914C467.395 213.336 466.042 213.848 464.728 214.447C459.973 216.668 441.39 228.701 430.787 235.639L448.333 267.41C455.714 263.45 461.105 259.93 461.105 259.93L456.149 292.823H518.794L523.048 291.159L552.501 271.178C552.463 261.99 551.742 252.817 550.346 243.736Z" fill="#FF7235"/>
<path d="M563.412 220.758C560.182 205.419 543.586 205.887 543.586 205.887C544.391 202.217 544.278 198.404 543.256 194.788C542.234 191.172 540.335 187.864 537.728 185.158C528.714 175.696 516.097 179.749 516.097 179.749C516.564 174.345 517.448 160.376 505.732 151.816C494.017 143.256 479.15 147.758 473.741 154.518C471.539 157.272 470.469 161.002 469.828 165.065C473.423 165.668 478.711 164.429 478.711 164.429C485.919 172.54 493.582 174.345 493.582 174.345C498.537 168.936 507.551 168.936 508.902 176.598C510.398 185.074 499.888 187.411 499.888 187.411C499.888 187.411 500.356 198.225 504.395 203.634C508.434 209.043 510.706 209.491 522.871 210.842C523.88 210.955 524.844 211.104 525.769 211.277C537.368 213.451 542.931 220.319 546.302 228.416C548.555 233.825 550.36 243.736 550.36 243.736C551.095 243.457 551.811 243.132 552.505 242.763C556.872 240.491 566.199 233.988 563.412 220.758Z" fill="#30242A"/>
<path d="M498.977 179.749L502.581 177.5" stroke="#30242A" stroke-width="4" stroke-miterlimit="10" stroke-linecap="round"/>
<path d="M475.915 190.329C476.663 190.796 479.454 191.151 480.59 189.006" stroke="#30242A" stroke-width="4" stroke-miterlimit="10" stroke-linecap="round"/>
<path d="M483.264 180.189C484.01 180.189 484.615 179.584 484.615 178.837C484.615 178.091 484.01 177.486 483.264 177.486C482.518 177.486 481.913 178.091 481.913 178.837C481.913 179.584 482.518 180.189 483.264 180.189Z" fill="#30242A"/>
<path d="M472.839 178.398C473.585 178.398 474.19 177.793 474.19 177.047C474.19 176.301 473.585 175.696 472.839 175.696C472.093 175.696 471.488 176.301 471.488 177.047C471.488 177.793 472.093 178.398 472.839 178.398Z" fill="#30242A"/>
<path d="M476.443 180.651C476.443 180.651 475.214 183.732 475.508 184.349C475.722 184.746 476.047 185.071 476.443 185.284" stroke="#30242A" stroke-width="4" stroke-miterlimit="10" stroke-linecap="round"/>
<path d="M384.285 236.761C385.018 236.754 385.73 236.515 386.319 236.078C387.913 234.484 387.59 232.151 384.477 229.608C384.477 229.608 390.377 230.22 391.274 227.065C392.172 223.909 389.026 222.109 389.026 222.109C389.026 222.109 393.079 222.109 393.079 218.505C393.079 214.9 389.474 213.998 389.474 213.998C389.474 213.998 391.382 212.619 390.825 210.394C389.923 206.789 382.265 205.887 382.265 205.887L381.209 204.597" stroke="#30242A" stroke-width="8" stroke-linecap="round" stroke-linejoin="round"/>
<path d="M484.797 202.708C486.698 201.953 488.553 201.086 490.351 200.113" stroke="#30242A" stroke-width="4" stroke-miterlimit="10" stroke-linecap="round"/>
<path d="M424.396 240.482L429.132 246.891" stroke="#30242A" stroke-width="4" stroke-miterlimit="10" stroke-linecap="round"/>
<path d="M462.647 245.082L460.347 259.519" stroke="#A15842" stroke-width="4" stroke-miterlimit="10" stroke-linecap="round"/>
<path d="M518.35 274.376L518.126 251.174" stroke="#A15842" stroke-width="4" stroke-miterlimit="10" stroke-linecap="round"/>
<path d="M544.268 206.518C543.617 208.952 542.746 211.321 541.664 213.596" stroke="black" stroke-width="4" stroke-linecap="round" stroke-linejoin="round"/>
<path d="M516.924 180.268L515.648 186.963" stroke="black" stroke-width="4" stroke-linecap="round" stroke-linejoin="round"/>
<path d="M489.514 293.305C489.514 293.305 450.759 305.46 429.132 315.834C407.627 326.119 410.208 350.078 414.261 391.985C415.696 406.8 417.375 418.398 418.225 427.585H459.365C461.479 426.407 473.951 418.398 466.514 396.491C461.081 380.498 456.392 369.905 456.392 356.011H490.8C500.588 356.011 509.99 352.195 517.009 345.374C524.029 338.553 528.112 329.264 528.392 319.48L529.144 293.3L489.514 293.305Z" fill="#30242A"/>
<path d="M410.381 457.215C399.423 464.517 395.575 469.108 396.145 475.359L423.26 475.321C423.26 475.321 433.625 466.35 440.834 464.999C445.611 464.091 450.464 463.639 455.326 463.648C456.977 455.565 458.753 443.433 459.066 427.753L459.366 427.599H418.226C419.661 443.017 418.749 451.628 410.381 457.215Z" fill="#4856DF"/>
<path d="M439.137 475.279H452.372C452.372 475.279 453.811 471.254 455.364 463.652C450.501 463.643 445.648 464.096 440.871 465.004L439.137 475.279Z" fill="#30242A"/>
<path d="M455.976 356.838H445.354" stroke="black" stroke-width="4" stroke-linecap="round" stroke-linejoin="round"/>
<path d="M417.398 445.383H427.557" stroke="#F5EBDD" stroke-width="4" stroke-miterlimit="10" stroke-linecap="round"/>
<path d="M415.14 452.591H425.299" stroke="#F5EBDD" stroke-width="4" stroke-miterlimit="10" stroke-linecap="round"/>
<path d="M277.957 373.958C289.031 373.958 298.008 364.981 298.008 353.907C298.008 342.833 289.031 333.856 277.957 333.856C266.883 333.856 257.906 342.833 257.906 353.907C257.906 364.981 266.883 373.958 277.957 373.958Z" fill="white"/>
<path d="M283.59 347.825C283.59 344.713 281.068 342.191 277.957 342.191C274.846 342.191 272.323 344.713 272.323 347.825V354.58C272.323 357.691 274.846 360.213 277.957 360.213C281.068 360.213 283.59 357.691 283.59 354.58V347.825Z" fill="#4856DF"/>
<path d="M277.957 358.414V364.725" stroke="#4856DF" stroke-width="4" stroke-miterlimit="10" stroke-linecap="round"/>
<path d="M274.726 364.725H281.183" stroke="#4856DF" stroke-width="4" stroke-miterlimit="10" stroke-linecap="round"/>
<path d="M136.463 219.851C140.569 219.851 143.897 216.523 143.897 212.418C143.897 208.313 140.569 204.985 136.463 204.985C132.358 204.985 129.03 208.313 129.03 212.418C129.03 216.523 132.358 219.851 136.463 219.851Z" fill="white"/>
<path d="M158.997 219.851C163.102 219.851 166.43 216.523 166.43 212.418C166.43 208.313 163.102 204.985 158.997 204.985C154.891 204.985 151.563 208.313 151.563 212.418C151.563 216.523 154.891 219.851 158.997 219.851Z" fill="white"/>
<path d="M181.526 219.851C185.631 219.851 188.959 216.523 188.959 212.418C188.959 208.313 185.631 204.985 181.526 204.985C177.42 204.985 174.092 208.313 174.092 212.418C174.092 216.523 177.42 219.851 181.526 219.851Z" fill="white"/>
<path d="M297.797 191.469C301.433 191.469 304.919 192.913 307.49 195.484C310.06 198.055 311.505 201.541 311.505 205.176V373.771C311.505 377.406 310.06 380.893 307.49 383.463C304.919 386.034 301.433 387.478 297.797 387.478H129.222C125.586 387.478 122.1 386.034 119.529 383.463C116.959 380.893 115.515 377.406 115.515 373.771V205.176C115.515 201.541 116.959 198.055 119.529 195.484C122.1 192.913 125.586 191.469 129.222 191.469H297.797ZM297.797 189.599H129.222C125.092 189.604 121.133 191.247 118.212 194.167C115.292 197.087 113.649 201.047 113.645 205.176V373.771C113.649 377.901 115.292 381.86 118.212 384.78C121.133 387.7 125.092 389.343 129.222 389.348H297.797C301.927 389.343 305.886 387.7 308.807 384.78C311.727 381.86 313.37 377.901 313.375 373.771V205.176C313.37 201.047 311.727 197.087 308.807 194.167C305.886 191.247 301.927 189.604 297.797 189.599Z" fill="#F5EBDD"/>
<path d="M516.513 300.514H599.461V437.959H478.72V338.325C478.721 328.3 482.703 318.687 489.789 311.596C496.876 304.506 506.488 300.52 516.513 300.514Z" fill="#94D1B0"/>
<path d="M578.732 438.019C579.84 434.839 581.91 432.082 584.655 430.131C587.4 428.18 590.684 427.132 594.052 427.132C597.42 427.132 600.704 428.18 603.45 430.131C606.195 432.082 608.265 434.839 609.372 438.019C610.431 434.984 612.368 432.331 614.936 430.398C617.505 428.465 620.589 427.337 623.799 427.159C622.366 424.603 620.659 422.209 618.708 420.021L612.818 413.424C610.983 411.367 609.827 408.794 609.506 406.057C609.185 403.319 609.714 400.549 611.022 398.123L616.025 388.829C614.622 390.232 606.506 397.843 594.188 397.843C581.869 397.843 573.758 390.246 572.356 388.829L577.362 398.123C578.668 400.55 579.195 403.321 578.872 406.058C578.55 408.795 577.392 411.367 575.558 413.424L569.667 420.021C567.712 422.212 566.002 424.611 564.567 427.173C567.73 427.399 570.757 428.547 573.274 430.474C575.792 432.402 577.689 435.025 578.732 438.019Z" fill="#34CB79"/>
<path d="M624.692 447.398C621.324 447.399 618.04 448.449 615.295 450.4C612.55 452.352 610.48 455.11 609.372 458.29C608.267 455.108 606.198 452.348 603.452 450.395C600.707 448.443 597.421 447.393 594.052 447.393C590.683 447.393 587.398 448.443 584.652 450.395C581.907 452.348 579.838 455.108 578.732 458.29C577.394 454.444 574.658 451.243 571.069 449.32C567.479 447.397 563.298 446.895 559.354 447.912C559.585 458.198 563.736 468.007 570.958 475.335H617.371C624.579 468.023 628.727 458.237 628.97 447.973C627.576 447.592 626.137 447.399 624.692 447.398Z" fill="#34CB79"/>
<path d="M594.165 397.842C606.483 397.842 614.594 390.246 616.001 388.829H572.332C573.735 390.246 581.851 397.842 594.165 397.842Z" fill="#30242A"/>
<path d="M578.732 458.3C579.838 455.117 581.907 452.357 584.652 450.405C587.398 448.452 590.683 447.403 594.052 447.403C597.421 447.403 600.707 448.452 603.452 450.405C606.198 452.357 608.267 455.117 609.372 458.3C610.722 454.416 613.497 451.19 617.136 449.274C620.774 447.359 625.004 446.897 628.97 447.982C629.156 440.702 627.369 433.507 623.799 427.159C620.589 427.337 617.505 428.465 614.936 430.398C612.368 432.331 610.431 434.984 609.372 438.019C608.265 434.839 606.195 432.082 603.45 430.131C600.704 428.18 597.42 427.132 594.052 427.132C590.685 427.132 587.4 428.18 584.655 430.131C581.91 432.082 579.84 434.839 578.732 438.019C577.686 435.018 575.782 432.39 573.255 430.462C570.729 428.534 567.691 427.39 564.52 427.173C560.976 433.503 559.2 440.669 559.378 447.921C563.321 446.904 567.502 447.407 571.092 449.329C574.682 451.252 577.417 454.454 578.756 458.3H578.732Z" fill="#322153"/>
<path d="M597.399 396.566C598.288 391.115 602.341 369.489 612.528 357.764" stroke="#30242A" stroke-width="4" stroke-miterlimit="10" stroke-linecap="round"/>
<path d="M592.692 396.72C592.627 390.531 591.991 360.115 585.941 341.967" stroke="#30242A" stroke-width="4" stroke-miterlimit="10" stroke-linecap="round"/>
<path d="M619.49 375.414C628.423 371.483 634.948 366.668 634.064 364.659C633.18 362.651 625.222 364.209 616.289 368.139C607.356 372.07 600.83 376.885 601.714 378.894C602.598 380.902 610.557 379.344 619.49 375.414Z" fill="#30242A"/>
<path d="M619.484 320.152C622.694 315.812 624.069 311.384 622.553 310.264C621.038 309.143 617.207 311.753 613.996 316.093C610.786 320.434 609.412 324.861 610.927 325.982C612.442 327.103 616.273 324.493 619.484 320.152Z" fill="#30242A"/>
<path d="M571.138 378.552C582.782 376.791 591.969 373.695 591.658 371.637C591.347 369.58 581.655 369.339 570.011 371.1C558.368 372.861 549.181 375.957 549.492 378.014C549.803 380.072 559.495 380.312 571.138 378.552Z" fill="#30242A"/>
<path d="M563.001 348.152V348.185C564.719 349.147 566.015 350.719 566.633 352.589C567.251 354.459 567.146 356.493 566.339 358.29C565.532 360.087 564.081 361.517 562.273 362.298C560.465 363.078 558.429 363.154 556.568 362.509V362.542C566.329 366.927 575.689 367.259 577.475 363.285C579.26 359.311 572.762 352.537 563.001 348.152Z" fill="#FF7235"/>
<path d="M591.855 316.367C589.775 315.829 587.072 318.971 585.1 323.847C582.725 317.942 579.279 313.992 576.96 314.758C574.642 315.525 574.221 320.747 575.829 326.913C571.35 324.183 567.307 323.267 565.96 324.936C564.24 327.068 567.554 332.594 573.365 337.283C575.019 338.631 576.799 339.816 578.681 340.822C579.001 339.549 579.635 338.377 580.523 337.411C581.411 336.446 582.527 335.718 583.768 335.293C585.01 334.868 586.338 334.759 587.632 334.978C588.925 335.197 590.144 335.735 591.177 336.544C592.048 334.67 592.745 332.72 593.257 330.719C595.127 323.473 594.506 317.054 591.855 316.367Z" fill="#FF7235"/>
<path d="M637.156 349.171C636.515 347.123 632.42 346.492 627.249 347.385C630.989 342.243 632.542 337.236 630.662 335.67C628.783 334.104 624.117 336.516 619.751 341.135C619.699 335.889 618.348 331.976 616.212 331.715C613.496 331.383 610.555 337.119 609.667 344.529C609.398 346.645 609.334 348.782 609.475 350.91C610.724 350.509 612.054 350.427 613.344 350.671C614.633 350.914 615.841 351.476 616.858 352.305C617.875 353.134 618.669 354.204 619.168 355.418C619.666 356.631 619.854 357.95 619.713 359.255C621.764 359.005 623.788 358.565 625.758 357.941C632.859 355.711 637.974 351.784 637.156 349.171Z" fill="#FF7235"/>
<path d="M616.899 352.359C615.88 351.51 614.663 350.932 613.361 350.679C612.059 350.425 610.715 350.505 609.452 350.91C609.704 354.435 610.597 357.133 611.939 358.138C613.187 359.297 616.086 359.681 619.69 359.255C619.83 357.965 619.648 356.66 619.161 355.457C618.674 354.253 617.897 353.189 616.899 352.359Z" fill="#30242A"/>
<path d="M583.851 335.249C582.591 335.664 581.457 336.392 580.554 337.364C579.65 338.336 579.008 339.52 578.686 340.808C581.808 342.458 584.571 343.145 586.133 342.519C587.778 342.051 589.634 339.816 591.182 336.53C590.161 335.728 588.957 335.192 587.678 334.968C586.399 334.744 585.084 334.841 583.851 335.249Z" fill="#30242A"/>
<path d="M563.87 361.377C563.035 360.909 562.406 360.144 562.107 359.234C561.808 358.324 561.861 357.335 562.256 356.462C562.65 355.589 563.357 354.896 564.238 354.519C565.118 354.142 566.108 354.109 567.012 354.426C566.907 353.133 566.485 351.886 565.783 350.796C565.081 349.705 564.12 348.805 562.987 348.175L556.554 362.499C557.772 362.927 559.077 363.049 560.352 362.853C561.628 362.657 562.837 362.151 563.87 361.377Z" fill="#F5EBDD"/>
<path d="M562.229 356.469C561.836 357.345 561.787 358.337 562.091 359.248C562.395 360.159 563.03 360.922 563.87 361.387C564.941 360.59 565.791 359.534 566.341 358.317C566.89 357.101 567.121 355.765 567.012 354.435C566.105 354.11 565.109 354.139 564.223 354.516C563.336 354.893 562.625 355.59 562.229 356.469Z" fill="#4856DF"/>
<path d="M404.575 123.873C408.68 123.873 412.008 120.545 412.008 116.44C412.008 112.335 408.68 109.007 404.575 109.007C400.469 109.007 397.141 112.335 397.141 116.44C397.141 120.545 400.469 123.873 404.575 123.873Z" fill="white"/>
<path d="M427.103 123.873C431.209 123.873 434.537 120.545 434.537 116.44C434.537 112.335 431.209 109.007 427.103 109.007C422.998 109.007 419.67 112.335 419.67 116.44C419.67 120.545 422.998 123.873 427.103 123.873Z" fill="white"/>
<path d="M449.632 123.873C453.738 123.873 457.065 120.545 457.065 116.44C457.065 112.335 453.738 109.007 449.632 109.007C445.527 109.007 442.199 112.335 442.199 116.44C442.199 120.545 445.527 123.873 449.632 123.873Z" fill="white"/>
<path d="M565.923 95.4869C569.559 95.4869 573.047 96.9315 575.618 99.503C578.19 102.074 579.634 105.562 579.634 109.199V277.793C579.633 281.429 578.188 284.915 575.617 287.486C573.045 290.056 569.558 291.5 565.923 291.5H397.333C393.697 291.5 390.21 290.056 387.639 287.486C385.067 284.915 383.622 281.429 383.621 277.793V109.199C383.621 107.398 383.976 105.615 384.665 103.951C385.354 102.288 386.364 100.776 387.637 99.503C388.91 98.2297 390.422 97.2197 392.086 96.5306C393.749 95.8416 395.532 95.4869 397.333 95.4869H565.923ZM565.923 93.6169H397.333C393.202 93.6218 389.241 95.2651 386.32 98.1861C383.399 101.107 381.756 105.068 381.751 109.199V277.793C381.756 281.924 383.399 285.884 386.321 288.804C389.242 291.724 393.202 293.367 397.333 293.37H565.923C570.053 293.367 574.014 291.724 576.935 288.804C579.856 285.884 581.499 281.924 581.504 277.793V109.199C581.499 105.068 579.856 101.107 576.935 98.1861C574.014 95.2651 570.054 93.6218 565.923 93.6169Z" fill="#F5EBDD"/>
<path d="M381.817 201.38C381.817 201.38 371.906 201.38 370.555 205.434C369.203 209.487 372.354 212.647 372.354 212.647C372.354 212.647 366.95 215.349 370.555 220.305C370.555 220.305 367.848 224.811 372.354 227.514C372.354 227.514 369.652 230.669 374.159 233.825C378.666 236.98 384.972 237.429 386.314 236.078C387.908 234.484 387.586 232.151 384.472 229.608C384.472 229.608 390.372 230.22 391.269 227.065C392.167 223.909 389.021 222.109 389.021 222.109C389.021 222.109 393.074 222.109 393.074 218.505C393.074 214.9 389.47 213.998 389.47 213.998C389.47 213.998 391.377 212.619 390.821 210.394C390.157 207.743 385.846 206.556 383.607 206.111C383.012 206.002 382.411 205.927 381.807 205.887L381.817 201.38Z" fill="#A15842"/>
<path d="M372.873 227.892C377.35 229.246 381.96 230.112 386.622 230.477" stroke="#30242A" stroke-width="4" stroke-miterlimit="10" stroke-linecap="round"/>
<path d="M371.195 220.66C377.717 222.274 384.434 222.965 391.148 222.712" stroke="#30242A" stroke-width="4" stroke-miterlimit="10" stroke-linecap="round"/>
<path d="M372.621 213.18C378.804 214.665 385.196 215.073 391.517 214.386" stroke="#30242A" stroke-width="4" stroke-miterlimit="10" stroke-linecap="round"/>
<path d="M517.448 287.012C517.448 287.012 480.95 296.479 468.332 305.941C462.633 310.214 455.71 318.096 453.466 321.71C451.222 325.324 441.75 338.835 446.257 339.283C450.764 339.732 455.719 331.626 455.719 331.626C455.719 331.626 453.008 341.537 453.475 344.692C453.943 347.848 458.43 346.946 458.43 346.946C462.035 350.55 465.191 346.044 465.191 346.044C471.497 350.097 478.281 328.47 478.281 328.47C481.981 326.646 485.397 324.293 488.421 321.486C488.421 321.486 528.747 321.261 541.365 309.995C550.322 302 552.534 286.232 552.529 271.225H517.466L517.448 287.012Z" fill="#A15842"/>
<path d="M517.784 285.918L526.012 283.861" stroke="#30242A" stroke-width="4" stroke-miterlimit="10" stroke-linecap="round"/>
<path d="M453.943 335.197C456.28 327.25 458.15 322.575 459.553 319.681" stroke="#30242A" stroke-width="4" stroke-miterlimit="10" stroke-linecap="round"/>
<path d="M465.854 322.388C461.796 331.13 459.309 341.677 458.15 346.885" stroke="#30242A" stroke-width="4" stroke-miterlimit="10" stroke-linecap="round"/>
<path d="M472.175 325.539C469.524 331.616 467.117 340.761 465.63 346.418" stroke="#30242A" stroke-width="4" stroke-miterlimit="10" stroke-linecap="round"/>
<path d="M461.647 302.786C450.665 306.694 438.407 311.388 429.132 315.834C412.508 323.781 410.278 339.915 411.994 366.174" stroke="black" stroke-width="4" stroke-linecap="round" stroke-linejoin="round"/>
<path d="M197.551 432.105C179.118 435.846 165.981 440.651 165.981 440.651L148.244 432.793L148.282 432.405L106.95 469.94L107.852 471.02C108.98 472.374 110.392 473.462 111.988 474.21C113.583 474.957 115.324 475.344 117.085 475.345H200.043L197.551 432.105Z" fill="#EAA58B"/>
<path d="M165.962 440.651C165.962 440.651 179.099 435.822 197.533 432.106L200.025 475.345H259.233C275.241 475.345 289.27 464.125 292.253 448.398C294.24 437.903 291.136 426.664 279.981 419.02C262.038 406.725 223.657 390.634 213.746 387.478L159.221 400.101C148.857 411.367 151.11 429.838 151.11 429.838L165.962 440.651Z" fill="#A15842"/>
<path d="M197.687 432.69C209.945 430.32 223.638 428.267 242.805 429.16" stroke="#30242A" stroke-width="4" stroke-miterlimit="10" stroke-linecap="round"/>
<path d="M214.681 387.011C223.353 389.773 253.824 402.438 273.324 413.798" stroke="#30242A" stroke-width="4" stroke-miterlimit="10" stroke-linecap="round"/>
<path d="M157.08 432.732L111.597 474.008C113.298 474.887 115.185 475.345 117.099 475.345H150.208L165.962 440.652C163.495 437.506 160.487 434.824 157.08 432.732Z" fill="#FFBE21"/>
<path d="M151.11 429.834L106.95 469.94L107.852 471.02C108.885 472.258 110.157 473.274 111.592 474.008L157.08 432.732C155.203 431.548 153.201 430.576 151.11 429.834Z" fill="#FF7235"/>
<path d="M140.97 467.463V475.448" stroke="#30242A" stroke-width="4" stroke-miterlimit="10" stroke-linecap="round"/>
<path d="M133.761 467.463V475.448" stroke="#30242A" stroke-width="4" stroke-miterlimit="10" stroke-linecap="round"/>
<path d="M183.283 293.445C184.686 293.314 187.612 293.076 190.539 293.076" stroke="#A15842" stroke-width="4" stroke-miterlimit="10" stroke-linecap="round"/>
<path d="M313.328 277.531C313.328 277.531 322.117 274.619 324.548 278.284C326.979 281.949 324.726 285.951 324.726 285.951C324.726 285.951 330.845 287.162 328.615 293.08C328.615 293.08 332.537 296.82 328.797 300.747C328.797 300.747 332.35 303.146 328.727 307.517C325.104 311.888 318.957 314.062 317.241 313.089C315.221 311.939 314.903 309.532 317.302 306.147C317.302 306.147 311.603 308.368 309.845 305.479C308.087 302.589 310.729 299.929 310.729 299.929C310.729 299.929 306.694 301.042 305.708 297.452C304.721 293.861 308.045 291.982 308.045 291.982C308.045 291.982 305.773 291.136 305.708 288.765C305.619 285.32 311.664 282.319 313.281 281.589L313.328 277.531Z" fill="#EAA58B"/>
<path d="M306.68 292.613C310.149 292.005 318.961 290.126 324.796 286.068" stroke="#A15842" stroke-width="4" stroke-miterlimit="10" stroke-linecap="round"/>
<path d="M308.083 301.033C315.408 300.115 322.436 297.572 328.652 293.59" stroke="#A15842" stroke-width="4" stroke-miterlimit="10" stroke-linecap="round"/>
<path d="M314.627 307.891C315.876 307.451 324.02 304.53 328.961 301.397" stroke="#A15842" stroke-width="4" stroke-miterlimit="10" stroke-linecap="round"/>
<path d="M189.884 365.585C181.727 366.581 172.624 368.053 162.377 369.886L176.794 331.135L183.101 294.202C183.101 294.202 162.377 296.456 152.915 307.292C144.186 317.264 116.866 363.617 127.67 387.95C138.473 412.284 170.937 403.7 178.585 401.447C182.76 400.217 189.085 397.384 195.579 395.276L189.884 365.585Z" fill="#FF7235"/>
<path d="M211.039 392.887C220.955 394.238 232.217 399.194 234.021 392.887C234.021 392.887 240.099 392.733 238.182 386.954C238.182 386.954 241.23 386.576 241.679 384.322C242.581 379.82 231.768 375.762 231.768 375.762C231.768 375.762 240.328 377.114 242.132 375.295C244.428 372.995 242.193 369.334 228.21 365.945C218.056 363.486 205.77 363.636 189.875 365.58L195.583 395.253C201.025 393.523 206.532 392.27 211.039 392.887Z" fill="#EAA58B"/>
<path d="M235.62 376.337C230.819 374.496 221.703 371.433 215.097 370.358" stroke="#A15842" stroke-width="4" stroke-miterlimit="10" stroke-linecap="round"/>
<path d="M238.369 386.767C232.104 383.962 220.006 378.764 213.517 377.791" stroke="#A15842" stroke-width="4" stroke-miterlimit="10" stroke-linecap="round"/>
<path d="M233.512 393.355C228.682 390.905 219.019 386.305 212.166 385" stroke="#A15842" stroke-width="4" stroke-miterlimit="10" stroke-linecap="round"/>
<path d="M189.964 366.258C185.56 366.829 171.474 368.773 150.432 372.836" stroke="#A15842" stroke-width="4" stroke-miterlimit="10" stroke-linecap="round"/>
<path d="M546.063 277.98C557.137 277.98 566.114 269.003 566.114 257.929C566.114 246.855 557.137 237.878 546.063 237.878C534.99 237.878 526.012 246.855 526.012 257.929C526.012 269.003 534.99 277.98 546.063 277.98Z" fill="white"/>
<path d="M551.697 251.847C551.697 248.736 549.175 246.214 546.063 246.214C542.952 246.214 540.43 248.736 540.43 251.847V258.602C540.43 261.714 542.952 264.236 546.063 264.236C549.175 264.236 551.697 261.714 551.697 258.602V251.847Z" fill="#4856DF"/>
<path d="M546.063 262.436V268.747" stroke="#4856DF" stroke-width="4" stroke-miterlimit="10" stroke-linecap="round"/>
<path d="M542.833 268.747H549.294" stroke="#4856DF" stroke-width="4" stroke-miterlimit="10" stroke-linecap="round"/>
</svg>
