<svg width="878" height="671" viewBox="0 0 878 671" fill="none" xmlns="http://www.w3.org/2000/svg">
<path opacity="0.5" fill-rule="evenodd" clip-rule="evenodd" d="M868.075 671H1.2691C-9.70578 523.198 136.012 430.063 215.18 379.462C225.465 372.889 234.626 367.033 242.175 361.869C275.263 339.232 299.799 289.801 325.894 237.228C373.97 140.372 427.337 32.8545 549.226 62.5907C656.389 88.8024 817.447 200.332 878 367.181V644.297C874.996 653.129 871.691 662.031 868.075 671Z" fill="url(#paint0_linear)"/>
<path d="M386.816 191.469H218.226C210.654 191.469 204.515 197.608 204.515 205.181V373.771C204.515 381.344 210.654 387.483 218.226 387.483H386.816C394.389 387.483 400.528 381.344 400.528 373.771V205.181C400.528 197.608 394.389 191.469 386.816 191.469Z" fill="#EBFAF2"/>
<path d="M363.913 185.607C366.526 185.607 368.645 183.489 368.645 180.876C368.645 178.263 366.526 176.145 363.913 176.145C361.301 176.145 359.182 178.263 359.182 180.876C359.182 183.489 361.301 185.607 363.913 185.607Z" fill="#A15842"/>
<path d="M363.913 164.429V179.3" stroke="#A15842" stroke-width="4" stroke-miterlimit="10"/>
<path d="M384.301 169.389H377.102V231.571H384.301V169.389Z" fill="#A15842"/>
<path d="M402.131 118.119C400.692 120.966 394.651 130.905 380.701 130.905C366.751 130.905 360.716 120.966 359.271 118.119L345.784 169.389H415.624L402.131 118.119Z" fill="#34CB79"/>
<path d="M396.311 119.114L405.381 169.399" stroke="#F5EBDD" stroke-width="4" stroke-miterlimit="10" stroke-linecap="round"/>
<path d="M365.096 119.769L356.144 169.399" stroke="#F5EBDD" stroke-width="4" stroke-miterlimit="10" stroke-linecap="round"/>
<path d="M374.82 119.446L371.351 169.38" stroke="#F5EBDD" stroke-width="4" stroke-miterlimit="10" stroke-linecap="round"/>
<path d="M386.582 119.446L390.061 169.478" stroke="#F5EBDD" stroke-width="4" stroke-miterlimit="10" stroke-linecap="round"/>
<path d="M380.72 130.9C394.675 130.9 400.71 120.961 402.15 118.114V118.016H359.299L359.271 118.114C360.716 120.966 366.751 130.9 380.72 130.9Z" fill="#FF7235"/>
<path d="M654.923 95.4869H486.333C478.76 95.4869 472.621 101.626 472.621 109.199V277.789C472.621 285.361 478.76 291.5 486.333 291.5H654.923C662.496 291.5 668.635 285.361 668.635 277.789V109.199C668.635 101.626 662.496 95.4869 654.923 95.4869Z" fill="#EBFAF2"/>
<path d="M380.472 475.345C379.172 475.345 377.916 474.87 376.941 474.009C375.966 473.148 375.34 471.96 375.18 470.67L371.234 437.519H389.71L385.764 470.67C385.606 471.961 384.98 473.149 384.005 474.011C383.03 474.872 381.773 475.346 380.472 475.345Z" fill="#30242A"/>
<path d="M587.748 475.345C586.447 475.346 585.191 474.872 584.217 474.01C583.243 473.149 582.618 471.96 582.46 470.67L578.515 437.519H596.985L593.04 470.67C592.881 471.961 592.255 473.149 591.28 474.011C590.305 474.872 589.049 475.346 587.748 475.345Z" fill="#30242A"/>
<path d="M272.068 300.514H355.008V437.959H234.252V338.325C234.254 328.296 238.238 318.679 245.33 311.588C252.422 304.497 262.04 300.514 272.068 300.514Z" fill="#FFB7D5"/>
<path d="M364.89 231.571H650.645C660.675 231.571 670.293 235.556 677.385 242.648C684.477 249.739 688.461 259.358 688.461 269.388V437.945H327.084V269.383C327.084 259.353 331.068 249.735 338.16 242.643C345.252 235.551 354.87 231.567 364.9 231.567L364.89 231.571Z" fill="#94D1B0"/>
<path d="M327.074 320.766V437.945" stroke="#A15842" stroke-width="4" stroke-miterlimit="10" stroke-linecap="round"/>
<path d="M364.89 355.487H650.645C660.675 355.487 670.293 359.471 677.385 366.563C684.477 373.655 688.461 383.274 688.461 393.303V437.949H327.084V393.303C327.084 383.275 331.067 373.658 338.157 366.566C345.246 359.475 354.863 355.49 364.89 355.487Z" fill="#94D1B0"/>
<path d="M539.595 355.487H363.525C353.854 355.487 344.579 359.329 337.741 366.167C330.902 373.006 327.06 382.281 327.06 391.952V437.963" stroke="#A15842" stroke-width="4" stroke-miterlimit="10" stroke-linecap="round"/>
<path d="M566.799 356.062V437.945" stroke="#A15842" stroke-width="4" stroke-miterlimit="10"/>
<path d="M688.461 299.611H604.148" stroke="#A15842" stroke-width="4" stroke-miterlimit="10"/>
<path d="M301.843 285.175C312.657 286.526 316.027 281.935 317.612 277.966C319.412 273.464 318.253 269.593 316.85 264.563C316.85 264.563 320.422 262.618 319.865 260.388C319.398 258.588 315.335 258.387 315.335 258.387C315.176 257.583 315.035 256.749 314.91 255.886C314.008 249.575 312.657 245.97 312.657 245.97C309.501 246.873 305.448 246.438 304.097 245.97C302.272 251.027 298.977 255.423 294.635 258.593C294.635 258.593 284.719 247.78 278.412 255.891C273.27 262.506 280.666 270.757 285.621 271.66C282.676 277.873 274.752 281.477 270.628 282.982C270.881 284.937 271.119 286.75 271.33 288.331H302.185L301.843 285.175Z" fill="#EAA58B"/>
<path d="M409.158 324.408C410.786 318.617 412.116 312.747 413.141 306.82L402.328 277.531C402.328 277.531 406.835 265.376 402.795 263.562C398.756 261.749 389.71 273.487 386.106 282.94C384.549 287.026 380.295 296.418 375.97 305.764L409.158 324.408Z" fill="#EAA58B"/>
<path d="M364.474 330.251C364.474 330.251 338.341 308.171 327.028 300.056C315.714 291.94 302.746 293.305 302.746 293.305L302.18 288.345H271.325C271.792 291.865 272.096 294.202 272.096 294.202L249.123 376.216L317.607 370.807L315.808 345.562C315.808 345.562 352.74 376.417 373.937 373.5C393.053 370.854 403.913 343.253 409.153 324.412L375.961 305.768C370.29 318.045 364.474 330.251 364.474 330.251Z" fill="#FF7235"/>
<path d="M285.621 271.674C280.666 270.771 273.265 262.52 278.412 255.905C284.719 247.794 294.634 258.607 294.634 258.607C298.976 255.437 302.272 251.041 304.097 245.984C305.448 246.452 309.501 246.887 312.657 245.984C312.657 245.984 319.417 243.731 318.963 238.327C318.36 231.071 307.248 234.269 307.248 234.269C307.248 234.269 295.093 225.256 282.003 231.113C268.052 237.392 266.697 250.047 267.585 258.607C268.099 263.52 269.506 274.502 270.614 282.996C274.752 281.486 282.676 277.887 285.621 271.674Z" fill="#30242A"/>
<path d="M410.948 312.454C408.887 313.304 407.078 313.552 406.273 313.089C404.254 311.939 403.936 309.532 406.334 306.147C406.334 306.147 400.635 308.368 398.878 305.479C397.12 302.589 399.761 299.929 399.761 299.929C399.761 299.929 395.727 301.042 394.74 297.452C393.754 293.861 397.078 291.982 397.078 291.982C397.078 291.982 394.806 291.136 394.74 288.765C394.651 285.32 400.266 282.524 401.884 281.79" stroke="#A15842" stroke-width="8" stroke-miterlimit="10" stroke-linecap="round"/>
<path d="M316.803 345.464L315.134 325.974" stroke="#A15842" stroke-width="4" stroke-miterlimit="10" stroke-linecap="round"/>
<path d="M301.418 286.007C298.803 285.416 296.285 284.459 293.938 283.165" stroke="#A15842" stroke-width="4" stroke-miterlimit="10" stroke-linecap="round"/>
<path d="M252.05 370.129L263.663 339.251" stroke="#A15842" stroke-width="4" stroke-miterlimit="10" stroke-linecap="round"/>
<path d="M313.176 269.182C312.432 269.649 309.637 270.005 308.501 267.859" stroke="#A15842" stroke-width="4" stroke-miterlimit="10" stroke-linecap="round"/>
<path d="M309.052 259.056C309.798 259.056 310.403 258.451 310.403 257.705C310.403 256.959 309.798 256.354 309.052 256.354C308.306 256.354 307.701 256.959 307.701 257.705C307.701 258.451 308.306 259.056 309.052 259.056Z" fill="#A15842"/>
<path d="M284.27 261.763L289.226 264.465" stroke="#A15842" stroke-width="4" stroke-miterlimit="10" stroke-linecap="round"/>
<path d="M410.687 457L445.202 446.785C442.57 437.688 437.535 420.441 434.296 410.395L391.225 428.375C396.861 438.468 403.373 448.047 410.687 457Z" fill="#EAA58B"/>
<path d="M411.341 457.771C410.331 461.606 409.705 465.532 409.471 469.492H470.531C469.36 466.673 467.28 464.326 464.622 462.825L446.937 452.811C446.937 452.811 446.263 450.474 445.202 446.78L410.687 457C411.107 457.505 411.341 457.771 411.341 457.771Z" fill="#FFBE21"/>
<path d="M409.537 475.345H471.714L471.523 473.419C471.388 472.067 471.053 470.744 470.527 469.492H409.467C409.332 471.441 409.356 473.399 409.537 475.345Z" fill="#FF7235"/>
<path d="M378.897 399.647C381.879 409.932 386.447 419.801 391.225 428.375L434.295 410.395C433.828 408.885 433.361 407.538 432.968 406.402C419.49 367.455 411.341 336.132 391.515 332.958C360.309 327.993 307.224 381.737 299.253 389.993L310.735 396.954L346.836 413.91L359.986 416.945L378.897 399.647Z" fill="#A15842"/>
<path d="M377.915 399.245C376.893 394.261 376.391 389.185 376.419 384.098" stroke="#30242A" stroke-width="4" stroke-miterlimit="10" stroke-linecap="round"/>
<path d="M545.168 292.851C545.168 292.851 501.985 304.244 482.99 314.931C461.359 327.086 460.008 343.318 446.493 384.322C442.14 397.52 439.064 408.123 436.208 416.454L473.439 434.032L473.509 433.891C473.509 433.891 491.742 431.213 493.336 408.646C494.538 391.816 495.113 379.329 500.994 366.74L601.478 292.842L545.168 292.851Z" fill="#30242A"/>
<path d="M416.133 441.208C403.113 443.181 397.681 445.715 395.563 451.619L420.158 463.068C420.158 463.068 433.346 459.328 440.448 461.156V461.179C445.205 462.295 449.848 463.849 454.318 465.822C461.646 455.82 468.061 445.181 473.486 434.032L436.254 416.454C430.915 432.045 426.465 439.642 416.133 441.208Z" fill="#4856DF"/>
<path d="M434.525 469.763L446.521 475.345C449.291 472.322 451.886 469.143 454.291 465.822C449.82 463.849 445.177 462.295 440.42 461.179L434.525 469.763Z" fill="#30242A"/>
<path d="M428.368 431.493L436.717 435.144" stroke="#F5EBDD" stroke-width="4" stroke-miterlimit="10" stroke-linecap="round"/>
<path d="M423.623 437.285L431.972 440.941" stroke="#F5EBDD" stroke-width="4" stroke-miterlimit="10" stroke-linecap="round"/>
<path d="M588.874 192.591C591.487 192.591 593.606 190.473 593.606 187.86C593.606 185.247 591.487 183.129 588.874 183.129C586.261 183.129 584.143 185.247 584.143 187.86C584.143 190.473 586.261 192.591 588.874 192.591Z" fill="#FFBE21"/>
<path d="M605.55 158.123C616.002 158.123 624.475 149.65 624.475 139.198C624.475 128.746 616.002 120.274 605.55 120.274C595.099 120.274 586.626 128.746 586.626 139.198C586.626 149.65 595.099 158.123 605.55 158.123Z" fill="#30242A"/>
<path d="M592.498 151.816C593.657 152.349 583.938 129.282 578.982 132.887C574.298 136.281 586.621 149.133 592.498 151.816Z" fill="#3EC1F3"/>
<path d="M593.016 153.223C594.078 154.49 618.864 145.818 615.456 140.811C612.132 136 591.96 151.937 593.016 153.223Z" fill="#3EC1F3"/>
<path d="M639.346 243.736L641.515 243.399V242.763C640.813 243.133 640.089 243.458 639.346 243.736Z" fill="#30242A"/>
<path d="M580.314 238.78C601.408 239.164 612.053 217.687 614.755 211.277C613.82 211.104 612.885 210.955 611.857 210.842C599.702 209.491 597.439 209.043 593.381 203.634C589.323 198.225 588.874 187.411 588.874 187.411C588.874 187.411 599.384 185.074 597.888 176.598C596.537 168.936 587.523 168.936 582.568 174.345C582.568 174.345 574.905 172.54 567.697 164.429C567.697 164.429 562.423 165.668 558.814 165.065C557.879 170.965 557.935 177.566 556.869 182.905C555.065 191.918 556.402 197.776 561.825 200.931C567.248 204.087 573.54 201.829 573.54 201.829L572.189 209.94C572.189 209.94 564.321 210.852 557.762 212.914C559.067 223.096 563.756 238.481 580.314 238.78Z" fill="#A15842"/>
<path d="M609.603 292.851L612.058 291.187L607.803 292.851H609.603Z" fill="#A15842"/>
<path d="M512.274 240.585C512.274 240.585 488.652 208.327 482.986 201.829C476.674 194.62 468.114 186.963 465.412 189.674C462.71 192.386 470.368 201.39 470.368 201.39L469.017 230.679C469.017 230.679 484.538 272.534 501.461 277.994C509.923 280.724 525.996 273.525 537.351 267.429L519.787 235.639C515.323 238.565 512.274 240.585 512.274 240.585Z" fill="#A15842"/>
<path d="M639.346 243.736C639.346 243.736 637.541 233.825 635.288 228.416C631.917 220.319 626.354 213.456 614.755 211.277C612.053 217.687 601.408 239.164 580.314 238.78C563.756 238.481 559.067 223.096 557.776 212.914C556.395 213.336 555.042 213.848 553.728 214.447C548.973 216.668 530.39 228.701 519.787 235.639L537.333 267.41C544.714 263.45 550.105 259.93 550.105 259.93L545.149 292.823H607.794L612.048 291.159L641.501 271.178C641.463 261.99 640.742 252.817 639.346 243.736Z" fill="#FF7235"/>
<path d="M652.412 220.758C649.182 205.419 632.586 205.887 632.586 205.887C633.391 202.217 633.278 198.404 632.256 194.788C631.234 191.172 629.335 187.864 626.728 185.158C617.714 175.696 605.097 179.749 605.097 179.749C605.564 174.345 606.448 160.376 594.732 151.816C583.017 143.256 568.15 147.758 562.741 154.518C560.539 157.272 559.469 161.002 558.828 165.065C562.423 165.668 567.711 164.429 567.711 164.429C574.919 172.54 582.582 174.345 582.582 174.345C587.537 168.936 596.551 168.936 597.902 176.598C599.398 185.074 588.888 187.411 588.888 187.411C588.888 187.411 589.356 198.225 593.395 203.634C597.434 209.043 599.706 209.491 611.871 210.842C612.88 210.955 613.844 211.104 614.769 211.277C626.368 213.451 631.931 220.319 635.302 228.416C637.555 233.825 639.36 243.736 639.36 243.736C640.095 243.457 640.811 243.132 641.505 242.763C645.872 240.491 655.199 233.988 652.412 220.758Z" fill="#30242A"/>
<path d="M587.977 179.749L591.581 177.5" stroke="#30242A" stroke-width="4" stroke-miterlimit="10" stroke-linecap="round"/>
<path d="M564.915 190.329C565.663 190.796 568.454 191.151 569.59 189.006" stroke="#30242A" stroke-width="4" stroke-miterlimit="10" stroke-linecap="round"/>
<path d="M572.264 180.189C573.01 180.189 573.615 179.584 573.615 178.837C573.615 178.091 573.01 177.486 572.264 177.486C571.518 177.486 570.913 178.091 570.913 178.837C570.913 179.584 571.518 180.189 572.264 180.189Z" fill="#30242A"/>
<path d="M561.839 178.398C562.585 178.398 563.19 177.793 563.19 177.047C563.19 176.301 562.585 175.696 561.839 175.696C561.093 175.696 560.488 176.301 560.488 177.047C560.488 177.793 561.093 178.398 561.839 178.398Z" fill="#30242A"/>
<path d="M565.443 180.651C565.443 180.651 564.214 183.732 564.508 184.349C564.722 184.746 565.047 185.071 565.443 185.284" stroke="#30242A" stroke-width="4" stroke-miterlimit="10" stroke-linecap="round"/>
<path d="M473.285 236.761C474.018 236.754 474.73 236.515 475.319 236.078C476.913 234.484 476.59 232.151 473.477 229.608C473.477 229.608 479.377 230.22 480.274 227.065C481.172 223.909 478.026 222.109 478.026 222.109C478.026 222.109 482.079 222.109 482.079 218.505C482.079 214.9 478.474 213.998 478.474 213.998C478.474 213.998 480.382 212.619 479.825 210.394C478.923 206.789 471.265 205.887 471.265 205.887L470.209 204.597" stroke="#30242A" stroke-width="8" stroke-linecap="round" stroke-linejoin="round"/>
<path d="M573.797 202.708C575.698 201.953 577.553 201.086 579.351 200.113" stroke="#30242A" stroke-width="4" stroke-miterlimit="10" stroke-linecap="round"/>
<path d="M513.396 240.482L518.132 246.891" stroke="#30242A" stroke-width="4" stroke-miterlimit="10" stroke-linecap="round"/>
<path d="M551.647 245.082L549.347 259.519" stroke="#A15842" stroke-width="4" stroke-miterlimit="10" stroke-linecap="round"/>
<path d="M607.35 274.376L607.126 251.174" stroke="#A15842" stroke-width="4" stroke-miterlimit="10" stroke-linecap="round"/>
<path d="M633.268 206.518C632.617 208.952 631.746 211.321 630.664 213.596" stroke="black" stroke-width="4" stroke-linecap="round" stroke-linejoin="round"/>
<path d="M605.924 180.268L604.648 186.963" stroke="black" stroke-width="4" stroke-linecap="round" stroke-linejoin="round"/>
<path d="M578.514 293.305C578.514 293.305 539.759 305.46 518.132 315.834C496.627 326.119 499.208 350.078 503.261 391.985C504.696 406.8 506.375 418.398 507.225 427.585H548.365C550.479 426.407 562.951 418.398 555.514 396.491C550.081 380.498 545.392 369.905 545.392 356.011H579.8C589.588 356.011 598.99 352.195 606.009 345.374C613.029 338.553 617.112 329.264 617.392 319.48L618.144 293.3L578.514 293.305Z" fill="#30242A"/>
<path d="M499.381 457.215C488.423 464.517 484.575 469.108 485.145 475.359L512.26 475.321C512.26 475.321 522.625 466.35 529.834 464.999C534.611 464.091 539.464 463.639 544.326 463.648C545.977 455.565 547.753 443.433 548.066 427.753L548.366 427.599H507.226C508.661 443.017 507.749 451.628 499.381 457.215Z" fill="#4856DF"/>
<path d="M528.137 475.279H541.372C541.372 475.279 542.811 471.254 544.364 463.652C539.501 463.643 534.648 464.096 529.871 465.004L528.137 475.279Z" fill="#30242A"/>
<path d="M544.976 356.838H534.354" stroke="black" stroke-width="4" stroke-linecap="round" stroke-linejoin="round"/>
<path d="M506.398 445.383H516.557" stroke="#F5EBDD" stroke-width="4" stroke-miterlimit="10" stroke-linecap="round"/>
<path d="M504.14 452.591H514.299" stroke="#F5EBDD" stroke-width="4" stroke-miterlimit="10" stroke-linecap="round"/>
<path d="M366.957 373.958C378.031 373.958 387.008 364.981 387.008 353.907C387.008 342.833 378.031 333.856 366.957 333.856C355.883 333.856 346.906 342.833 346.906 353.907C346.906 364.981 355.883 373.958 366.957 373.958Z" fill="white"/>
<path d="M372.59 347.825C372.59 344.713 370.068 342.191 366.957 342.191C363.846 342.191 361.323 344.713 361.323 347.825V354.58C361.323 357.691 363.846 360.213 366.957 360.213C370.068 360.213 372.59 357.691 372.59 354.58V347.825Z" fill="#4856DF"/>
<path d="M366.957 358.414V364.725" stroke="#4856DF" stroke-width="4" stroke-miterlimit="10" stroke-linecap="round"/>
<path d="M363.726 364.725H370.183" stroke="#4856DF" stroke-width="4" stroke-miterlimit="10" stroke-linecap="round"/>
<path d="M225.463 219.851C229.569 219.851 232.897 216.523 232.897 212.418C232.897 208.313 229.569 204.985 225.463 204.985C221.358 204.985 218.03 208.313 218.03 212.418C218.03 216.523 221.358 219.851 225.463 219.851Z" fill="white"/>
<path d="M247.997 219.851C252.102 219.851 255.43 216.523 255.43 212.418C255.43 208.313 252.102 204.985 247.997 204.985C243.891 204.985 240.563 208.313 240.563 212.418C240.563 216.523 243.891 219.851 247.997 219.851Z" fill="white"/>
<path d="M270.526 219.851C274.631 219.851 277.959 216.523 277.959 212.418C277.959 208.313 274.631 204.985 270.526 204.985C266.42 204.985 263.092 208.313 263.092 212.418C263.092 216.523 266.42 219.851 270.526 219.851Z" fill="white"/>
<path d="M386.797 191.469C390.433 191.469 393.919 192.913 396.49 195.484C399.06 198.055 400.505 201.541 400.505 205.176V373.771C400.505 377.406 399.06 380.893 396.49 383.463C393.919 386.034 390.433 387.478 386.797 387.478H218.222C214.586 387.478 211.1 386.034 208.529 383.463C205.959 380.893 204.515 377.406 204.515 373.771V205.176C204.515 201.541 205.959 198.055 208.529 195.484C211.1 192.913 214.586 191.469 218.222 191.469H386.797ZM386.797 189.599H218.222C214.092 189.604 210.133 191.247 207.212 194.167C204.292 197.087 202.649 201.047 202.645 205.176V373.771C202.649 377.901 204.292 381.86 207.212 384.78C210.133 387.7 214.092 389.343 218.222 389.348H386.797C390.927 389.343 394.886 387.7 397.807 384.78C400.727 381.86 402.37 377.901 402.375 373.771V205.176C402.37 201.047 400.727 197.087 397.807 194.167C394.886 191.247 390.927 189.604 386.797 189.599Z" fill="#F5EBDD"/>
<path d="M605.513 300.514H688.461V437.959H567.72V338.325C567.721 328.3 571.703 318.687 578.789 311.596C585.876 304.506 595.488 300.52 605.513 300.514Z" fill="#94D1B0"/>
<path d="M667.732 438.019C668.84 434.839 670.91 432.082 673.655 430.131C676.4 428.18 679.684 427.132 683.052 427.132C686.42 427.132 689.704 428.18 692.45 430.131C695.195 432.082 697.265 434.839 698.372 438.019C699.431 434.984 701.368 432.331 703.936 430.398C706.505 428.465 709.589 427.337 712.799 427.159C711.366 424.603 709.659 422.209 707.708 420.021L701.818 413.424C699.983 411.367 698.827 408.794 698.506 406.057C698.185 403.319 698.714 400.549 700.022 398.123L705.025 388.829C703.622 390.232 695.506 397.843 683.188 397.843C670.869 397.843 662.758 390.246 661.356 388.829L666.362 398.123C667.668 400.55 668.195 403.321 667.872 406.058C667.55 408.795 666.392 411.367 664.558 413.424L658.667 420.021C656.712 422.212 655.002 424.611 653.567 427.173C656.73 427.399 659.757 428.547 662.274 430.474C664.792 432.402 666.689 435.025 667.732 438.019Z" fill="#34CB79"/>
<path d="M713.692 447.398C710.324 447.399 707.04 448.449 704.295 450.4C701.55 452.352 699.48 455.11 698.372 458.29C697.267 455.108 695.198 452.348 692.452 450.395C689.707 448.443 686.421 447.393 683.052 447.393C679.683 447.393 676.398 448.443 673.652 450.395C670.907 452.348 668.838 455.108 667.732 458.29C666.394 454.444 663.658 451.243 660.069 449.32C656.479 447.397 652.298 446.895 648.354 447.912C648.585 458.198 652.736 468.007 659.958 475.335H706.371C713.579 468.023 717.727 458.237 717.97 447.973C716.576 447.592 715.137 447.399 713.692 447.398Z" fill="#34CB79"/>
<path d="M683.165 397.842C695.483 397.842 703.594 390.246 705.001 388.829H661.332C662.735 390.246 670.851 397.842 683.165 397.842Z" fill="#30242A"/>
<path d="M667.732 458.3C668.838 455.117 670.907 452.357 673.652 450.405C676.398 448.452 679.683 447.403 683.052 447.403C686.421 447.403 689.707 448.452 692.452 450.405C695.198 452.357 697.267 455.117 698.372 458.3C699.722 454.416 702.497 451.19 706.136 449.274C709.774 447.359 714.004 446.897 717.97 447.982C718.156 440.702 716.369 433.507 712.799 427.159C709.589 427.337 706.505 428.465 703.936 430.398C701.368 432.331 699.431 434.984 698.372 438.019C697.265 434.839 695.195 432.082 692.45 430.131C689.704 428.18 686.42 427.132 683.052 427.132C679.685 427.132 676.4 428.18 673.655 430.131C670.91 432.082 668.84 434.839 667.732 438.019C666.686 435.018 664.782 432.39 662.255 430.462C659.729 428.534 656.691 427.39 653.52 427.173C649.976 433.503 648.2 440.669 648.378 447.921C652.321 446.904 656.502 447.407 660.092 449.329C663.682 451.252 666.417 454.454 667.756 458.3H667.732Z" fill="#322153"/>
<path d="M686.399 396.566C687.288 391.115 691.341 369.489 701.528 357.764" stroke="#30242A" stroke-width="4" stroke-miterlimit="10" stroke-linecap="round"/>
<path d="M681.692 396.72C681.627 390.531 680.991 360.115 674.941 341.967" stroke="#30242A" stroke-width="4" stroke-miterlimit="10" stroke-linecap="round"/>
<path d="M708.49 375.414C717.423 371.483 723.948 366.668 723.064 364.659C722.18 362.651 714.222 364.209 705.289 368.139C696.356 372.07 689.83 376.885 690.714 378.894C691.598 380.902 699.557 379.344 708.49 375.414Z" fill="#30242A"/>
<path d="M708.484 320.152C711.694 315.812 713.069 311.384 711.553 310.264C710.038 309.143 706.207 311.753 702.996 316.093C699.786 320.434 698.412 324.861 699.927 325.982C701.442 327.103 705.273 324.493 708.484 320.152Z" fill="#30242A"/>
<path d="M660.138 378.552C671.782 376.791 680.969 373.695 680.658 371.637C680.347 369.58 670.655 369.339 659.011 371.1C647.368 372.861 638.181 375.957 638.492 378.014C638.803 380.072 648.495 380.312 660.138 378.552Z" fill="#30242A"/>
<path d="M652.001 348.152V348.185C653.719 349.147 655.015 350.719 655.633 352.589C656.251 354.459 656.146 356.493 655.339 358.29C654.532 360.087 653.081 361.517 651.273 362.298C649.465 363.078 647.429 363.154 645.568 362.509V362.542C655.329 366.927 664.689 367.259 666.475 363.285C668.26 359.311 661.762 352.537 652.001 348.152Z" fill="#FF7235"/>
<path d="M680.855 316.367C678.775 315.829 676.072 318.971 674.1 323.847C671.725 317.942 668.279 313.992 665.96 314.758C663.642 315.525 663.221 320.747 664.829 326.913C660.35 324.183 656.307 323.267 654.96 324.936C653.24 327.068 656.554 332.594 662.365 337.283C664.019 338.631 665.799 339.816 667.681 340.822C668.001 339.549 668.635 338.377 669.523 337.411C670.411 336.446 671.527 335.718 672.768 335.293C674.01 334.868 675.338 334.759 676.632 334.978C677.925 335.197 679.144 335.735 680.177 336.544C681.048 334.67 681.745 332.72 682.257 330.719C684.127 323.473 683.506 317.054 680.855 316.367Z" fill="#FF7235"/>
<path d="M726.156 349.171C725.515 347.123 721.42 346.492 716.249 347.385C719.989 342.243 721.542 337.236 719.662 335.67C717.783 334.104 713.117 336.516 708.751 341.135C708.699 335.889 707.348 331.976 705.212 331.715C702.496 331.383 699.555 337.119 698.667 344.529C698.398 346.645 698.334 348.782 698.475 350.91C699.724 350.509 701.054 350.427 702.344 350.671C703.633 350.914 704.841 351.476 705.858 352.305C706.875 353.134 707.669 354.204 708.168 355.418C708.666 356.631 708.854 357.95 708.713 359.255C710.764 359.005 712.788 358.565 714.758 357.941C721.859 355.711 726.974 351.784 726.156 349.171Z" fill="#FF7235"/>
<path d="M705.899 352.359C704.88 351.51 703.663 350.932 702.361 350.679C701.059 350.425 699.715 350.505 698.452 350.91C698.704 354.435 699.597 357.133 700.939 358.138C702.187 359.297 705.086 359.681 708.69 359.255C708.83 357.965 708.648 356.66 708.161 355.457C707.674 354.253 706.897 353.189 705.899 352.359Z" fill="#30242A"/>
<path d="M672.851 335.249C671.591 335.664 670.457 336.392 669.554 337.364C668.65 338.336 668.008 339.52 667.686 340.808C670.808 342.458 673.571 343.145 675.133 342.519C676.778 342.051 678.634 339.816 680.182 336.53C679.161 335.728 677.957 335.192 676.678 334.968C675.399 334.744 674.084 334.841 672.851 335.249Z" fill="#30242A"/>
<path d="M652.87 361.377C652.035 360.909 651.406 360.144 651.107 359.234C650.808 358.324 650.861 357.335 651.256 356.462C651.65 355.589 652.357 354.896 653.238 354.519C654.118 354.142 655.108 354.109 656.012 354.426C655.907 353.133 655.485 351.886 654.783 350.796C654.081 349.705 653.12 348.805 651.987 348.175L645.554 362.499C646.772 362.927 648.077 363.049 649.352 362.853C650.628 362.657 651.837 362.151 652.87 361.377Z" fill="#F5EBDD"/>
<path d="M651.229 356.469C650.836 357.345 650.787 358.337 651.091 359.248C651.395 360.159 652.03 360.922 652.87 361.387C653.941 360.59 654.791 359.534 655.341 358.317C655.89 357.101 656.121 355.765 656.012 354.435C655.105 354.11 654.109 354.139 653.223 354.516C652.336 354.893 651.625 355.59 651.229 356.469Z" fill="#4856DF"/>
<path d="M493.575 123.873C497.68 123.873 501.008 120.545 501.008 116.44C501.008 112.335 497.68 109.007 493.575 109.007C489.469 109.007 486.141 112.335 486.141 116.44C486.141 120.545 489.469 123.873 493.575 123.873Z" fill="white"/>
<path d="M516.103 123.873C520.209 123.873 523.537 120.545 523.537 116.44C523.537 112.335 520.209 109.007 516.103 109.007C511.998 109.007 508.67 112.335 508.67 116.44C508.67 120.545 511.998 123.873 516.103 123.873Z" fill="white"/>
<path d="M538.632 123.873C542.738 123.873 546.065 120.545 546.065 116.44C546.065 112.335 542.738 109.007 538.632 109.007C534.527 109.007 531.199 112.335 531.199 116.44C531.199 120.545 534.527 123.873 538.632 123.873Z" fill="white"/>
<path d="M654.923 95.4869C658.559 95.4869 662.047 96.9315 664.618 99.503C667.19 102.074 668.634 105.562 668.634 109.199V277.793C668.633 281.429 667.188 284.915 664.617 287.486C662.045 290.056 658.558 291.5 654.923 291.5H486.333C482.697 291.5 479.21 290.056 476.639 287.486C474.067 284.915 472.622 281.429 472.621 277.793V109.199C472.621 107.398 472.976 105.615 473.665 103.951C474.354 102.288 475.364 100.776 476.637 99.503C477.91 98.2297 479.422 97.2197 481.086 96.5306C482.749 95.8416 484.532 95.4869 486.333 95.4869H654.923ZM654.923 93.6169H486.333C482.202 93.6218 478.241 95.2651 475.32 98.1861C472.399 101.107 470.756 105.068 470.751 109.199V277.793C470.756 281.924 472.399 285.884 475.321 288.804C478.242 291.724 482.202 293.367 486.333 293.37H654.923C659.053 293.367 663.014 291.724 665.935 288.804C668.856 285.884 670.499 281.924 670.504 277.793V109.199C670.499 105.068 668.856 101.107 665.935 98.1861C663.014 95.2651 659.054 93.6218 654.923 93.6169Z" fill="#F5EBDD"/>
<path d="M470.817 201.38C470.817 201.38 460.906 201.38 459.555 205.434C458.203 209.487 461.354 212.647 461.354 212.647C461.354 212.647 455.95 215.349 459.555 220.305C459.555 220.305 456.848 224.811 461.354 227.514C461.354 227.514 458.652 230.669 463.159 233.825C467.666 236.98 473.972 237.429 475.314 236.078C476.908 234.484 476.586 232.151 473.472 229.608C473.472 229.608 479.372 230.22 480.269 227.065C481.167 223.909 478.021 222.109 478.021 222.109C478.021 222.109 482.074 222.109 482.074 218.505C482.074 214.9 478.47 213.998 478.47 213.998C478.47 213.998 480.377 212.619 479.821 210.394C479.157 207.743 474.846 206.556 472.607 206.111C472.012 206.002 471.411 205.927 470.807 205.887L470.817 201.38Z" fill="#A15842"/>
<path d="M461.873 227.892C466.35 229.246 470.96 230.112 475.622 230.477" stroke="#30242A" stroke-width="4" stroke-miterlimit="10" stroke-linecap="round"/>
<path d="M460.195 220.66C466.717 222.274 473.434 222.965 480.148 222.712" stroke="#30242A" stroke-width="4" stroke-miterlimit="10" stroke-linecap="round"/>
<path d="M461.621 213.18C467.804 214.665 474.196 215.073 480.517 214.386" stroke="#30242A" stroke-width="4" stroke-miterlimit="10" stroke-linecap="round"/>
<path d="M606.448 287.012C606.448 287.012 569.95 296.479 557.332 305.941C551.633 310.214 544.71 318.096 542.466 321.71C540.222 325.324 530.75 338.835 535.257 339.283C539.764 339.732 544.719 331.626 544.719 331.626C544.719 331.626 542.008 341.537 542.475 344.692C542.943 347.848 547.43 346.946 547.43 346.946C551.035 350.55 554.191 346.044 554.191 346.044C560.497 350.097 567.281 328.47 567.281 328.47C570.981 326.646 574.397 324.293 577.421 321.486C577.421 321.486 617.747 321.261 630.365 309.995C639.322 302 641.534 286.232 641.529 271.225H606.466L606.448 287.012Z" fill="#A15842"/>
<path d="M606.784 285.918L615.012 283.861" stroke="#30242A" stroke-width="4" stroke-miterlimit="10" stroke-linecap="round"/>
<path d="M542.943 335.197C545.28 327.25 547.15 322.575 548.553 319.681" stroke="#30242A" stroke-width="4" stroke-miterlimit="10" stroke-linecap="round"/>
<path d="M554.854 322.388C550.796 331.13 548.309 341.677 547.15 346.885" stroke="#30242A" stroke-width="4" stroke-miterlimit="10" stroke-linecap="round"/>
<path d="M561.175 325.539C558.524 331.616 556.117 340.761 554.63 346.418" stroke="#30242A" stroke-width="4" stroke-miterlimit="10" stroke-linecap="round"/>
<path d="M550.647 302.786C539.665 306.694 527.407 311.388 518.132 315.834C501.508 323.781 499.278 339.915 500.994 366.174" stroke="black" stroke-width="4" stroke-linecap="round" stroke-linejoin="round"/>
<path d="M286.551 432.105C268.118 435.846 254.981 440.651 254.981 440.651L237.244 432.793L237.282 432.405L195.95 469.94L196.852 471.02C197.98 472.374 199.392 473.462 200.988 474.21C202.583 474.957 204.324 475.344 206.085 475.345H289.043L286.551 432.105Z" fill="#EAA58B"/>
<path d="M254.962 440.651C254.962 440.651 268.099 435.822 286.533 432.106L289.025 475.345H348.233C364.241 475.345 378.27 464.125 381.253 448.398C383.24 437.903 380.136 426.664 368.981 419.02C351.038 406.725 312.657 390.634 302.746 387.478L248.221 400.101C237.857 411.367 240.11 429.838 240.11 429.838L254.962 440.651Z" fill="#A15842"/>
<path d="M286.687 432.69C298.945 430.32 312.638 428.267 331.805 429.16" stroke="#30242A" stroke-width="4" stroke-miterlimit="10" stroke-linecap="round"/>
<path d="M303.681 387.011C312.353 389.773 342.824 402.438 362.324 413.798" stroke="#30242A" stroke-width="4" stroke-miterlimit="10" stroke-linecap="round"/>
<path d="M246.08 432.732L200.597 474.008C202.298 474.887 204.185 475.345 206.099 475.345H239.208L254.962 440.652C252.495 437.506 249.487 434.824 246.08 432.732Z" fill="#FFBE21"/>
<path d="M240.11 429.834L195.95 469.94L196.852 471.02C197.885 472.258 199.157 473.274 200.592 474.008L246.08 432.732C244.203 431.548 242.201 430.576 240.11 429.834Z" fill="#FF7235"/>
<path d="M229.97 467.463V475.448" stroke="#30242A" stroke-width="4" stroke-miterlimit="10" stroke-linecap="round"/>
<path d="M222.761 467.463V475.448" stroke="#30242A" stroke-width="4" stroke-miterlimit="10" stroke-linecap="round"/>
<path d="M272.283 293.445C273.686 293.314 276.612 293.076 279.539 293.076" stroke="#A15842" stroke-width="4" stroke-miterlimit="10" stroke-linecap="round"/>
<path d="M402.328 277.531C402.328 277.531 411.117 274.619 413.548 278.284C415.979 281.949 413.726 285.951 413.726 285.951C413.726 285.951 419.845 287.162 417.615 293.08C417.615 293.08 421.537 296.82 417.797 300.747C417.797 300.747 421.35 303.146 417.727 307.517C414.104 311.888 407.957 314.062 406.241 313.089C404.221 311.939 403.903 309.532 406.302 306.147C406.302 306.147 400.603 308.368 398.845 305.479C397.087 302.589 399.729 299.929 399.729 299.929C399.729 299.929 395.694 301.042 394.708 297.452C393.721 293.861 397.045 291.982 397.045 291.982C397.045 291.982 394.773 291.136 394.708 288.765C394.619 285.32 400.664 282.319 402.281 281.589L402.328 277.531Z" fill="#EAA58B"/>
<path d="M395.68 292.613C399.149 292.005 407.961 290.126 413.796 286.068" stroke="#A15842" stroke-width="4" stroke-miterlimit="10" stroke-linecap="round"/>
<path d="M397.083 301.033C404.408 300.115 411.436 297.572 417.652 293.59" stroke="#A15842" stroke-width="4" stroke-miterlimit="10" stroke-linecap="round"/>
<path d="M403.627 307.891C404.876 307.451 413.02 304.53 417.961 301.397" stroke="#A15842" stroke-width="4" stroke-miterlimit="10" stroke-linecap="round"/>
<path d="M278.884 365.585C270.727 366.581 261.624 368.053 251.377 369.886L265.794 331.135L272.101 294.202C272.101 294.202 251.377 296.456 241.915 307.292C233.186 317.264 205.866 363.617 216.67 387.95C227.473 412.284 259.937 403.7 267.585 401.447C271.76 400.217 278.085 397.384 284.579 395.276L278.884 365.585Z" fill="#FF7235"/>
<path d="M300.039 392.887C309.955 394.238 321.217 399.194 323.021 392.887C323.021 392.887 329.099 392.733 327.182 386.954C327.182 386.954 330.23 386.576 330.679 384.322C331.581 379.82 320.768 375.762 320.768 375.762C320.768 375.762 329.328 377.114 331.132 375.295C333.428 372.995 331.193 369.334 317.21 365.945C307.056 363.486 294.77 363.636 278.875 365.58L284.583 395.253C290.025 393.523 295.532 392.27 300.039 392.887Z" fill="#EAA58B"/>
<path d="M324.62 376.337C319.819 374.496 310.703 371.433 304.097 370.358" stroke="#A15842" stroke-width="4" stroke-miterlimit="10" stroke-linecap="round"/>
<path d="M327.369 386.767C321.104 383.962 309.006 378.764 302.517 377.791" stroke="#A15842" stroke-width="4" stroke-miterlimit="10" stroke-linecap="round"/>
<path d="M322.512 393.355C317.682 390.905 308.019 386.305 301.166 385" stroke="#A15842" stroke-width="4" stroke-miterlimit="10" stroke-linecap="round"/>
<path d="M278.964 366.258C274.56 366.829 260.474 368.773 239.432 372.836" stroke="#A15842" stroke-width="4" stroke-miterlimit="10" stroke-linecap="round"/>
<path d="M635.063 277.98C646.137 277.98 655.114 269.003 655.114 257.929C655.114 246.855 646.137 237.878 635.063 237.878C623.99 237.878 615.012 246.855 615.012 257.929C615.012 269.003 623.99 277.98 635.063 277.98Z" fill="white"/>
<path d="M640.697 251.847C640.697 248.736 638.175 246.214 635.063 246.214C631.952 246.214 629.43 248.736 629.43 251.847V258.602C629.43 261.714 631.952 264.236 635.063 264.236C638.175 264.236 640.697 261.714 640.697 258.602V251.847Z" fill="#4856DF"/>
<path d="M635.063 262.436V268.747" stroke="#4856DF" stroke-width="4" stroke-miterlimit="10" stroke-linecap="round"/>
<path d="M631.833 268.747H638.294" stroke="#4856DF" stroke-width="4" stroke-miterlimit="10" stroke-linecap="round"/>
<defs>
<linearGradient id="paint0_linear" x1="369.5" y1="164.5" x2="868" y2="663" gradientUnits="userSpaceOnUse">
<stop stop-color="white"/>
<stop offset="1" stop-color="white" stop-opacity="0"/>
</linearGradient>
</defs>
</svg>
