<svg width="77" height="103" viewBox="0 0 77 103" fill="none" xmlns="http://www.w3.org/2000/svg">
<path d="M38.6215 23.6042C31.1667 23.6042 24.1613 26.5054 18.8931 31.7694C17.2166 33.4448 17.2166 36.1638 18.891 37.8392C20.5664 39.5156 23.2853 39.5135 24.9618 37.8413C28.607 34.1961 33.4592 32.1875 38.6215 32.1875C49.2711 32.1875 57.934 40.8505 57.934 51.5C57.934 58.7914 53.8959 65.3861 47.3987 68.7075C47.3233 68.7463 47.2636 68.7997 47.1902 68.8406C47.0613 68.916 46.9346 68.9946 46.8141 69.0826C46.7009 69.1665 46.5961 69.2545 46.4924 69.3467C46.3918 69.4389 46.2933 69.5311 46.2011 69.6327C46.1047 69.7375 46.0167 69.8465 45.9308 69.9607C45.8491 70.0696 45.7715 70.1796 45.7013 70.2949C45.6301 70.4112 45.5662 70.5317 45.5054 70.6532C45.4436 70.78 45.388 70.9089 45.3357 71.0441C45.2885 71.1729 45.2497 71.3018 45.2162 71.4328C45.1816 71.5658 45.1492 71.6989 45.1261 71.8362C45.0999 71.986 45.0894 72.1369 45.081 72.2888C45.079 72.3705 45.059 72.4481 45.059 72.5288V77.25H32.184V72.5288C32.184 72.4481 32.1652 72.3705 32.161 72.2909C32.1526 72.139 32.139 71.9881 32.1159 71.8383C32.0939 71.701 32.0615 71.5679 32.0258 71.4349C31.9913 71.3039 31.9525 71.1729 31.9053 71.0462C31.8561 70.9131 31.7985 70.7842 31.7356 70.6553C31.6759 70.5338 31.613 70.4154 31.5407 70.297C31.4695 70.1817 31.393 70.0696 31.3113 69.9628C31.2253 69.8486 31.1373 69.7396 31.0409 69.6348C30.9487 69.5332 30.8513 69.441 30.7486 69.3488C30.6459 69.2566 30.5401 69.1665 30.4269 69.0847C30.3064 68.9967 30.1797 68.9181 30.0518 68.8427C29.9806 68.7997 29.9188 68.7463 29.8433 68.7096C23.3482 65.3861 19.309 58.7914 19.309 51.5C19.309 49.131 17.3864 47.2083 15.0174 47.2083C12.6484 47.2083 10.7257 49.131 10.7257 51.5C10.7257 61.1238 15.6031 69.8894 23.6007 74.9931V87.9792C23.6007 96.2597 30.341 103 38.6215 103C46.9021 103 53.6424 96.2597 53.6424 87.9792V74.9931C61.64 69.8894 66.5174 61.1217 66.5174 51.5C66.5174 36.1187 54.0028 23.6042 38.6215 23.6042ZM38.6215 94.4167C35.0727 94.4167 32.184 91.528 32.184 87.9792V85.8333H45.059V87.9792C45.059 91.528 42.1714 94.4167 38.6215 94.4167Z" fill="white"/>
<path d="M42.9132 8.58333V4.29167C42.9132 1.92266 40.9906 0 38.6215 0C36.2525 0 34.3299 1.92266 34.3299 4.29167V8.58333C34.3299 10.9523 36.2525 12.875 38.6215 12.875C40.9906 12.875 42.9132 10.9523 42.9132 8.58333Z" fill="white"/>
<path d="M11.3072 18.117L8.27288 15.0826C6.5975 13.4073 3.88063 13.4073 2.20525 15.0826C0.528814 16.7591 0.528814 19.4759 2.20525 21.1513L5.23854 24.1857C6.0778 25.0249 7.17482 25.443 8.27288 25.443C9.37199 25.443 10.468 25.0249 11.3072 24.1857C12.9858 22.5103 12.9858 19.7955 11.3072 18.117Z" fill="white"/>
<path d="M68.9702 15.0826L65.9359 18.117C64.2605 19.7934 64.2605 22.5103 65.9359 24.1857C66.7751 25.0249 67.8721 25.443 68.9702 25.443C70.0693 25.443 71.1653 25.0249 72.0045 24.1857L75.0389 21.1513C76.7143 19.4759 76.7143 16.7591 75.0389 15.0826C73.3625 13.4073 70.6466 13.4073 68.9702 15.0826Z" fill="white"/>
</svg>
