<svg width="78" height="129" viewBox="0 0 78 129" fill="none" xmlns="http://www.w3.org/2000/svg">
<path d="M38.5313 19.2656V10.7031C38.5326 8.47652 37.8391 6.305 36.5474 4.49136C35.2557 2.67772 33.4302 1.31237 31.3255 0.585698C29.2208 -0.140978 26.9418 -0.192756 24.8063 0.437584C22.6708 1.06792 20.7852 2.34896 19.4124 4.10206L17.0385 2.91514C15.9201 2.3559 14.6773 2.09185 13.4281 2.14804C12.1789 2.20424 10.9648 2.57882 9.90108 3.23622C8.83738 3.89363 7.95938 4.81203 7.35045 5.90421C6.74153 6.99639 6.4219 8.22609 6.42191 9.47655V14.4649C6.42903 17.0642 5.92053 19.639 4.92583 22.0404C3.93114 24.4418 2.47002 26.6221 0.627038 28.455C0.327647 28.7544 0.123754 29.1358 0.0411438 29.5511C-0.0414661 29.9663 0.000918274 30.3967 0.162935 30.7879C0.324952 31.179 0.599324 31.5134 0.951357 31.7486C1.30339 31.9838 1.71727 32.1094 2.14066 32.1094H8.56253C9.73234 32.1091 10.8966 31.9484 12.0228 31.632L4.17127 48.6381C2.83805 51.5371 2.14545 54.6894 2.14066 57.8802V58.0665C2.14716 61.6363 2.98083 65.1559 4.57624 68.3493C6.17166 71.5426 8.4854 74.3228 11.3359 76.4717C17.3398 80.9706 24.848 86.601 27.6051 88.6687L21.4478 119.455C21.4202 119.593 21.4063 119.734 21.4063 119.875V126.297C21.4063 126.865 21.6318 127.409 22.0333 127.811C22.4347 128.212 22.9792 128.438 23.5469 128.438H44.9532C45.5209 128.438 46.0654 128.212 46.4668 127.811C46.8682 127.409 47.0938 126.865 47.0938 126.297V122.016C47.0938 121.683 47.0164 121.356 46.8678 121.058C46.7191 120.761 46.5033 120.502 46.2375 120.303L39.007 114.88L47.9469 93.4245C49.1703 90.4884 49.5317 87.2644 48.9888 84.1303C48.4459 80.9962 47.0213 78.0816 44.8817 75.728L28.3416 57.534L33.6973 48.6078L36.1564 46.9683C38.3501 45.5078 39.8871 43.2487 40.44 40.6719H68.5C68.9226 40.6719 69.3358 40.5468 69.6874 40.3123L76.1093 36.0311C76.4025 35.8356 76.6429 35.5708 76.8092 35.2601C76.9755 34.9494 77.0625 34.6024 77.0625 34.25V25.6875C77.0625 25.1198 76.837 24.5753 76.4356 24.1739C76.0341 23.7724 75.4896 23.5469 74.9219 23.5469H70.6407V19.2656C70.6407 18.6979 70.4151 18.1534 70.0137 17.752C69.6122 17.3505 69.0678 17.125 68.5 17.125H66.3594C65.7917 17.125 65.2472 17.3505 64.8458 17.7519L59.0508 23.5469H37.6341C38.2249 22.1968 38.5304 20.7393 38.5313 19.2656ZM23.9732 23.5469C23.6717 23.5469 23.3718 23.5576 23.0736 23.5792C22.0003 22.399 21.4057 20.8609 21.4063 19.2656V17.125H23.5469C24.1146 17.125 24.6591 16.8995 25.0605 16.4981L28.7149 12.8438H34.25V19.2656C34.249 20.8455 33.6661 22.3696 32.6125 23.5469H23.9732ZM27.8282 4.28125C29.1556 4.28296 30.4501 4.69535 31.5339 5.46186C32.6178 6.22836 33.4379 7.31144 33.8818 8.5625H27.8282C27.2605 8.5625 26.716 8.78798 26.3145 9.18938L22.6602 12.8438H21.4063V10.7031C21.4082 9.00054 22.0854 7.36824 23.2894 6.16433C24.4933 4.96041 26.1256 4.2832 27.8282 4.28125ZM6.661 27.8281C9.30848 23.8754 10.7159 19.2224 10.7032 14.4649V9.47655C10.7032 8.95585 10.8363 8.44381 11.0899 7.98903C11.3435 7.53425 11.7091 7.15184 12.152 6.87809C12.5949 6.60435 13.1005 6.44837 13.6207 6.42496C14.1408 6.40155 14.6584 6.51148 15.1241 6.74433L17.4919 7.92824C17.2484 8.83309 17.125 9.76607 17.125 10.7031V19.2656C17.1225 21.5358 16.2195 23.7122 14.6143 25.3174C13.0091 26.9226 10.8327 27.8256 8.56253 27.8281H6.661ZM42.8125 123.086V124.156H25.6875V121.418L36.0036 117.979L42.8125 123.086ZM44.9532 86.9869C44.9548 88.6316 44.6291 90.2602 43.9949 91.7777L34.7894 113.871L26.3694 116.678L32.0679 88.1855C32.1471 87.7894 32.1126 87.379 31.9684 87.0016C31.8243 86.6243 31.5763 86.2954 31.2531 86.053C31.2531 86.053 27.8403 83.4934 23.5035 80.2418L34.7096 70.9034L41.7137 78.6079C43.8002 80.8995 44.9555 83.8878 44.9532 86.9869ZM31.8271 67.7327L20.0359 77.5587L20.2209 77.7807C18.103 76.193 15.9187 74.5557 13.9033 73.0454C11.5837 71.2965 9.70102 69.0338 8.40297 66.4348C7.10492 63.8359 6.42683 60.9716 6.42191 58.0665V57.8802C6.42577 56.0058 6.72419 54.1436 7.30625 52.3618L24.4205 59.5855L31.8271 67.7327ZM33.7815 43.4062L30.922 45.3127C30.6583 45.4884 30.4369 45.7206 30.2739 45.9923L24.808 55.1022L8.98572 48.4238L16.1979 32.8024C16.7795 31.551 17.6539 30.4582 18.7472 29.6164C19.8405 28.7745 21.1205 28.2084 22.4789 27.966C21.7567 29.2691 21.3872 30.7382 21.407 32.228C21.4268 33.7177 21.8352 35.1765 22.5918 36.4599C23.3484 37.7434 24.427 38.8071 25.7208 39.5459C27.0146 40.2846 28.4789 40.6727 29.9688 40.6719H35.9864C35.549 41.7877 34.7793 42.7422 33.7815 43.4062H33.7815ZM59.9375 27.8281C60.5052 27.8281 61.0497 27.6026 61.4512 27.2013L66.3594 22.2929V25.6875C66.3594 26.2552 66.5849 26.7997 66.9864 27.2011C67.3878 27.6026 67.9323 27.8281 68.5 27.8281H72.7813V33.1044L67.8519 36.3906H29.9688C28.8333 36.3906 27.7444 35.9396 26.9415 35.1367C26.1386 34.3338 25.6875 33.2448 25.6875 32.1094C25.6875 30.9739 26.1386 29.885 26.9415 29.0821C27.7444 28.2792 28.8333 27.8281 29.9688 27.8281H59.9375Z" fill="white"/>
</svg>
