<svg width="118" height="112" viewBox="0 0 118 112" fill="none" xmlns="http://www.w3.org/2000/svg">
<path d="M80.9095 42.1364H60.7821C55.7375 42.1364 51.6333 46.054 51.6333 50.8694C51.6333 52.7433 52.0775 54.5204 52.8702 56.1092H35.8516C29.076 56.1092 24.2201 62.4119 26.2454 68.582C21.7861 69.5638 18.3161 73.4718 18.4737 78.2489C18.6213 82.7143 21.9768 86.2924 26.2486 87.2748C24.4511 92.7316 28.004 98.2216 33.5676 99.501C31.4998 105.778 36.5042 112 43.3043 112H80.9095C101.088 112 117.505 96.3296 117.505 77.0682C117.505 57.8068 101.088 42.1364 80.9095 42.1364ZM80.9095 105.014H43.3045C41.7643 105.014 40.4736 103.877 40.4274 102.481C40.3782 100.995 41.6197 99.7739 43.1707 99.7739H64.4416C66.4628 99.7739 68.1012 98.2098 68.1012 96.2807C68.1012 94.3516 66.4628 92.7875 64.4416 92.7875C61.4022 92.7875 40.8938 92.7875 35.9854 92.7875C33.4986 92.7875 32.1578 90.0417 33.8812 88.3438C34.4022 87.8303 35.1021 87.5478 35.8516 87.5478H64.4416C66.4628 87.5478 68.1012 85.9837 68.1012 84.0546C68.1012 82.1255 66.4628 80.5614 64.4416 80.5614C60.5115 80.5614 32.2177 80.5614 28.6664 80.5614C27.1262 80.5614 25.8355 79.4252 25.7893 78.0286C25.7402 76.5427 26.9817 75.3216 28.5326 75.3216H64.4416C66.4628 75.3216 68.1012 73.7576 68.1012 71.8285C68.1012 69.8993 66.4628 68.3353 64.4416 68.3353H35.8516C34.3382 68.3353 33.107 67.16 33.107 65.7154C33.107 64.2707 34.3382 63.0955 35.8516 63.0955H77.25C79.2712 63.0955 80.9095 61.5314 80.9095 59.6023C80.9095 57.6732 79.2712 56.1092 77.25 56.1092H64.4416C61.415 56.1092 58.9524 53.7585 58.9524 50.8694C58.9524 49.9064 59.7732 49.1228 60.7821 49.1228H80.9095C97.0523 49.1228 110.186 61.6589 110.186 77.0682C110.186 92.4775 97.0523 105.014 80.9095 105.014Z" fill="white"/>
<path d="M44.3155 31.6569C44.3155 14.3366 25.2918 1.19903 24.4819 0.648196C23.2111 -0.216147 21.5055 -0.216147 20.235 0.648196C19.4251 1.19903 0.401306 14.3366 0.401306 31.6569C0.401306 43.2139 10.2511 52.616 22.3584 52.616C34.4657 52.616 44.3155 43.2139 44.3155 31.6569ZM7.72034 31.6569C7.72034 20.9558 17.8465 11.5932 22.3584 7.9533C26.8724 11.5949 36.9965 20.9569 36.9965 31.6569C36.9965 39.3615 30.4299 45.6296 22.3584 45.6296C14.2869 45.6296 7.72034 39.3615 7.72034 31.6569Z" fill="white"/>
</svg>
